<?xml version="1.0" encoding="UTF-8"?>
<svg xmlns="http://www.w3.org/2000/svg" width="54" height="65" viewBox="0 0 54 65" fill="none">
  <path d="M11.4653 64.2803C0.212314 59.9476 5.44954 48.299 12.5976 33.5962C15.3578 27.985 20.3119 18.9645 16.0655 16.9046C11.8191 14.8448 7.64351 25.1439 5.73263 29.1215L0 26.2803C3.9633 17.899 11.1822 7.17382 19.5334 11.0093C29.7955 15.7682 22.0813 28.9084 18.4718 36.4373C15.0747 43.5401 8.56356 55.4728 15.3578 57.4616C21.0197 59.0953 26.2569 42.4037 28.5216 36.0822C31.2818 28.4112 34.7497 13.4243 43.7379 15.2C52.9384 17.0467 48.055 28.056 44.1625 39.7046C42.6055 44.3214 37.5806 56.2541 41.6147 57.9588C44.0917 59.0242 45.9318 56.1831 47.8427 51.2112L54 53.342C51.2398 60.7999 46.2149 66.6953 38.4299 63.9962C29.3001 60.7999 35.882 44.7476 38.2883 37.6448C39.5623 33.8803 44.1625 22.7289 42.0393 22.0187C39.7746 21.2374 36.8021 32.1757 34.7497 37.9289C31.4941 47.1626 24.4168 69.2522 11.4653 64.2803ZM23.3552 8.45233L28.8755 0L33.405 7.94811e-07L38.9253 8.45233H35.5282L31.1402 4.3327L26.7523 8.45233H23.3552Z" fill="#FCD82F"></path>
</svg>
